name rise49.5252peak65.1548fall88.8305.mot
datacolumns 19
datarows 24
range 16.83994100000000 16.87827000000000
endheader
time	ground_force1_vx	ground_force1_vy	ground_force1_vz	ground_force1_px	ground_force1_py	ground_force1_pz	ground_force2_vx	ground_force2_vy	ground_force2_vz	ground_force2_px	ground_force2_py	ground_force2_pz	ground_torque1_x	ground_torque1_y	ground_torque1_z	ground_torque2_x	ground_torque2_y	ground_torque2_z	
16.83994100000000	55.06494600000000	751.27434400000004	57.19928900000000	0.41434700000000	0.00000000000000	0.11747400000000	0.00000000000000	0.00000000000000	0.00000000000000	0.00000000000000	0.00000000000000	0.00000000000000	0.00000000000000	32.81689600000000	0.00000000000000	0.00000000000000	0.00000000000000	0.00000000000000	
16.84160600000000	54.38046100000000	754.78114400000004	57.42512600000000	0.41278600000000	0.00000000000000	0.11748800000000	0.00000000000000	0.00000000000000	0.00000000000000	0.00000000000000	0.00000000000000	0.00000000000000	0.00000000000000	32.96367800000000	0.00000000000000	0.00000000000000	0.00000000000000	0.00000000000000	
16.84326600000000	53.69742800000000	758.17016000000001	57.65133200000000	0.41124400000000	0.00000000000000	0.11750100000000	0.00000000000000	0.00000000000000	0.00000000000000	0.00000000000000	0.00000000000000	0.00000000000000	0.00000000000000	33.11128200000000	0.00000000000000	0.00000000000000	0.00000000000000	0.00000000000000	
16.84492700000000	53.01629000000000	761.43832599999996	57.87729200000000	0.40972000000000	0.00000000000000	0.11751200000000	0.00000000000000	0.00000000000000	0.00000000000000	0.00000000000000	0.00000000000000	0.00000000000000	0.00000000000000	33.25928600000000	0.00000000000000	0.00000000000000	0.00000000000000	0.00000000000000	
16.84660100000000	52.33742800000000	764.58264999999994	58.10231400000000	0.40821700000000	0.00000000000000	0.11752300000000	0.00000000000000	0.00000000000000	0.00000000000000	0.00000000000000	0.00000000000000	0.00000000000000	0.00000000000000	33.40721600000000	0.00000000000000	0.00000000000000	0.00000000000000	0.00000000000000	
16.84826200000000	51.66115600000000	767.60022900000001	58.32563300000000	0.40673400000000	0.00000000000000	0.11753200000000	0.00000000000000	0.00000000000000	0.00000000000000	0.00000000000000	0.00000000000000	0.00000000000000	0.00000000000000	33.55455000000000	0.00000000000000	0.00000000000000	0.00000000000000	0.00000000000000	
16.84993500000000	50.98772800000000	770.48826399999996	58.54642100000000	0.40527300000000	0.00000000000000	0.11753900000000	0.00000000000000	0.00000000000000	0.00000000000000	0.00000000000000	0.00000000000000	0.00000000000000	0.00000000000000	33.70072100000000	0.00000000000000	0.00000000000000	0.00000000000000	0.00000000000000	
16.85159500000000	50.31733800000000	773.24407900000006	58.76379100000000	0.40383500000000	0.00000000000000	0.11754500000000	0.00000000000000	0.00000000000000	0.00000000000000	0.00000000000000	0.00000000000000	0.00000000000000	0.00000000000000	33.84512700000000	0.00000000000000	0.00000000000000	0.00000000000000	0.00000000000000	
16.85326500000000	49.65012900000000	775.86513600000001	58.97680700000000	0.40241800000000	0.00000000000000	0.11755000000000	0.00000000000000	0.00000000000000	0.00000000000000	0.00000000000000	0.00000000000000	0.00000000000000	0.00000000000000	33.98712700000000	0.00000000000000	0.00000000000000	0.00000000000000	0.00000000000000	
16.85492800000000	48.98619100000000	778.34905100000003	59.18448800000000	0.40102500000000	0.00000000000000	0.11755200000000	0.00000000000000	0.00000000000000	0.00000000000000	0.00000000000000	0.00000000000000	0.00000000000000	0.00000000000000	34.12605700000000	0.00000000000000	0.00000000000000	0.00000000000000	0.00000000000000	
16.85659400000000	48.32556500000000	780.69360900000004	59.38581800000000	0.39965500000000	0.00000000000000	0.11755300000000	0.00000000000000	0.00000000000000	0.00000000000000	0.00000000000000	0.00000000000000	0.00000000000000	0.00000000000000	34.26122700000000	0.00000000000000	0.00000000000000	0.00000000000000	0.00000000000000	
16.85826100000000	47.66825100000000	782.89677800000004	59.57975300000000	0.39830700000000	0.00000000000000	0.11755200000000	0.00000000000000	0.00000000000000	0.00000000000000	0.00000000000000	0.00000000000000	0.00000000000000	0.00000000000000	34.39193100000000	0.00000000000000	0.00000000000000	0.00000000000000	0.00000000000000	
16.85993300000000	47.01420900000000	784.95672200000001	59.76523000000000	0.39698300000000	0.00000000000000	0.11754900000000	0.00000000000000	0.00000000000000	0.00000000000000	0.00000000000000	0.00000000000000	0.00000000000000	0.00000000000000	34.51745000000000	0.00000000000000	0.00000000000000	0.00000000000000	0.00000000000000	
16.86159700000000	46.36336100000000	786.87181599999997	59.94117500000000	0.39568300000000	0.00000000000000	0.11754500000000	0.00000000000000	0.00000000000000	0.00000000000000	0.00000000000000	0.00000000000000	0.00000000000000	0.00000000000000	34.63706000000000	0.00000000000000	0.00000000000000	0.00000000000000	0.00000000000000	
16.86326400000000	45.71560100000000	788.64065500000004	60.10650900000000	0.39440500000000	0.00000000000000	0.11753800000000	0.00000000000000	0.00000000000000	0.00000000000000	0.00000000000000	0.00000000000000	0.00000000000000	0.00000000000000	34.75003500000000	0.00000000000000	0.00000000000000	0.00000000000000	0.00000000000000	
16.86495000000000	45.07079200000000	790.26206600000000	60.26015800000000	0.39314900000000	0.00000000000000	0.11752800000000	0.00000000000000	0.00000000000000	0.00000000000000	0.00000000000000	0.00000000000000	0.00000000000000	0.00000000000000	34.85565200000000	0.00000000000000	0.00000000000000	0.00000000000000	0.00000000000000	
16.86659800000000	44.42877700000000	791.73512100000005	60.40106200000000	0.39191600000000	0.00000000000000	0.11751700000000	0.00000000000000	0.00000000000000	0.00000000000000	0.00000000000000	0.00000000000000	0.00000000000000	0.00000000000000	34.95320000000000	0.00000000000000	0.00000000000000	0.00000000000000	0.00000000000000	
16.86826900000000	43.78937500000000	793.05914099999995	60.52818000000000	0.39070400000000	0.00000000000000	0.11750400000000	0.00000000000000	0.00000000000000	0.00000000000000	0.00000000000000	0.00000000000000	0.00000000000000	0.00000000000000	35.04197900000000	0.00000000000000	0.00000000000000	0.00000000000000	0.00000000000000	
16.86992700000000	43.15239500000000	794.23370599999998	60.64049800000000	0.38951400000000	0.00000000000000	0.11748800000000	0.00000000000000	0.00000000000000	0.00000000000000	0.00000000000000	0.00000000000000	0.00000000000000	0.00000000000000	35.12131200000000	0.00000000000000	0.00000000000000	0.00000000000000	0.00000000000000	
16.87159500000000	42.51762900000000	795.25866299999996	60.73703900000000	0.38834400000000	0.00000000000000	0.11747000000000	0.00000000000000	0.00000000000000	0.00000000000000	0.00000000000000	0.00000000000000	0.00000000000000	0.00000000000000	35.19054200000000	0.00000000000000	0.00000000000000	0.00000000000000	0.00000000000000	
16.87326700000000	41.88486600000000	796.13412800000003	60.81686900000000	0.38719400000000	0.00000000000000	0.11744900000000	0.00000000000000	0.00000000000000	0.00000000000000	0.00000000000000	0.00000000000000	0.00000000000000	0.00000000000000	35.24904500000000	0.00000000000000	0.00000000000000	0.00000000000000	0.00000000000000	
16.87492800000000	41.25388800000000	796.86049300000002	60.87910000000000	0.38606300000000	0.00000000000000	0.11742600000000	0.00000000000000	0.00000000000000	0.00000000000000	0.00000000000000	0.00000000000000	0.00000000000000	0.00000000000000	35.29622600000000	0.00000000000000	0.00000000000000	0.00000000000000	0.00000000000000	
16.87660100000000	40.62447800000000	797.43843100000004	60.92290200000000	0.38495000000000	0.00000000000000	0.11740100000000	0.00000000000000	0.00000000000000	0.00000000000000	0.00000000000000	0.00000000000000	0.00000000000000	0.00000000000000	35.33152900000000	0.00000000000000	0.00000000000000	0.00000000000000	0.00000000000000	
16.87827000000000	39.99641900000000	797.86889199999996	60.94750600000000	0.38385500000000	0.00000000000000	0.11737300000000	0.00000000000000	0.00000000000000	0.00000000000000	0.00000000000000	0.00000000000000	0.00000000000000	0.00000000000000	35.35443700000000	0.00000000000000	0.00000000000000	0.00000000000000	0.00000000000000	
